<svg width="172" height="28" viewBox="0 0 172 28" fill="none" xmlns="http://www.w3.org/2000/svg">
<g clip-path="url(#paint0_diamond_36_31_clip_path)" data-figma-skip-parse="true"><g transform="matrix(2.67138e-08 -0.0265 -0.526428 -5.30676e-07 80.9999 27)"><rect x="0" y="0" width="1283.02" height="210.855" fill="url(#paint0_diamond_36_31)" opacity="1" shape-rendering="crispEdges"/><rect x="0" y="0" width="1283.02" height="210.855" transform="scale(1 -1)" fill="url(#paint0_diamond_36_31)" opacity="1" shape-rendering="crispEdges"/><rect x="0" y="0" width="1283.02" height="210.855" transform="scale(-1 1)" fill="url(#paint0_diamond_36_31)" opacity="1" shape-rendering="crispEdges"/><rect x="0" y="0" width="1283.02" height="210.855" transform="scale(-1)" fill="url(#paint0_diamond_36_31)" opacity="1" shape-rendering="crispEdges"/></g></g><path d="M15.992 23.148H16.676V27L0.296 27.036V26.316C0.62 26.316 1.088 21.384 1.088 15.336C1.088 9.288 0.656 4.356 0.296 4.356V3.672H8.144V4.356C7.784 4.356 7.316 9.396 7.316 15.012C7.316 20.268 7.604 24.732 7.964 25.956C10.196 25.956 14.588 26.064 15.992 23.148ZM26.5099 9.54C32.1979 9.54 35.3299 13.5 35.3299 18.36C35.3299 23.256 32.1979 27.216 26.5099 27.216C20.7859 27.216 17.6899 23.256 17.6899 18.36C17.6899 13.5 20.7859 9.54 26.5099 9.54ZM26.5099 25.38C28.0579 25.38 29.2819 22.248 29.2819 18.36C29.2819 14.508 28.0579 11.376 26.5099 11.376C24.9619 11.376 23.7019 14.508 23.7019 18.36C23.7019 22.248 24.9619 25.38 26.5099 25.38ZM54.8768 18.612H55.7408C55.7408 18.612 54.3008 27.252 45.5168 27.252C41.4488 27.252 38.5688 24.264 37.5968 21.42C37.3088 20.484 37.1648 19.548 37.1648 18.612C37.1648 14.76 39.6848 11.34 43.3568 10.26C43.6448 10.188 44.6528 9.936 46.0208 9.936C50.5568 9.936 52.3568 12.6 52.6808 13.14C52.8608 13.392 52.9688 13.68 53.0768 14.004C53.2208 14.364 53.2568 14.76 53.2928 15.12C53.2928 15.48 53.2568 15.84 53.1488 16.164C53.0768 16.38 53.0048 16.596 52.8968 16.74C52.6808 17.064 52.4288 17.316 52.1048 17.532C51.6728 17.856 51.0968 18 50.5208 17.964C49.8008 17.964 49.2248 17.784 48.7208 17.244C48.5768 17.136 48.4688 16.992 48.3608 16.848C48.0368 16.38 47.8568 15.876 47.8208 15.264C47.8208 15.012 47.8568 14.796 47.8928 14.58L48.0008 14.148C48.0368 13.968 48.0368 13.824 48.0728 13.752C48.2528 12.564 47.8568 11.196 46.4528 11.232C44.5808 11.232 42.7448 13.572 42.7448 16.74C42.7448 20.916 45.2288 23.184 48.5048 23.184C53.1848 23.184 54.8768 18.612 54.8768 18.612ZM72.9401 15.804C73.4081 19.944 73.5881 26.172 75.3521 26.172V26.856H69.4841C68.5841 26.856 67.7561 26.244 67.5401 25.38C66.4601 26.352 64.3361 27.36 62.2481 27.252C58.8281 27 57.3161 25.164 57.3161 23.04C57.3161 18.144 63.6161 17.172 67.2881 16.632C67.2881 16.488 67.3241 16.344 67.3241 16.164C67.3241 13.464 66.8201 11.268 64.6241 11.268C63.1481 11.268 62.2481 12.528 62.4281 13.752C62.4281 13.86 62.4641 14.004 62.5001 14.148L62.6081 14.58C62.6441 14.796 62.6801 15.012 62.6441 15.264C62.6441 15.84 62.4641 16.38 62.1401 16.812C62.0321 16.956 61.9241 17.1 61.8161 17.208C61.2761 17.712 60.7361 17.892 60.0161 17.928C59.4401 17.928 58.9001 17.784 58.4681 17.496C58.1441 17.28 57.8921 17.028 57.7121 16.704C57.6041 16.56 57.4961 16.344 57.4241 16.128C57.3161 15.804 57.2801 15.444 57.3161 15.12C57.3161 14.76 57.3881 14.364 57.4961 14.004C57.6041 13.716 57.7481 13.428 57.8921 13.14C58.2161 12.636 58.7201 12.096 59.4041 11.592C60.0161 11.124 60.7001 10.8 61.4561 10.548C62.3201 10.296 63.0401 10.188 63.6881 10.116C65.0921 9.936 72.1121 8.748 72.9401 15.804ZM62.6081 21.888C62.6081 25.38 65.7041 25.524 67.3601 24.408C67.1801 22.788 67.2521 20.304 67.2881 17.856C65.6321 18.216 62.6081 19.224 62.6081 21.888ZM83.8461 16.416C83.8461 16.416 83.7381 26.172 84.6741 26.172V26.856H76.8261V26.172C77.4381 26.172 77.6901 19.296 77.6901 12.816C77.6901 8.496 77.2941 4.644 76.8261 4.284V3.492C80.2461 3.024 81.6861 2.376 83.8821 0.755999H84.6741C83.9901 5.4 83.8101 11.412 83.8461 16.416ZM97.8546 3.672L114.235 3.708V7.56H113.551C112.147 4.608 107.755 4.716 105.487 4.716C105.199 5.904 104.911 9.936 104.875 14.76C107.179 14.688 110.095 14.256 111.211 11.952H111.895V18.72H111.211C110.095 16.416 107.179 15.984 104.875 15.912C104.875 21.42 105.343 26.316 105.703 26.316V27.036H97.8186V26.316C98.2146 26.316 98.6466 21.384 98.6466 15.336C98.6466 9.324 98.1786 4.356 97.8546 4.356V3.672ZM130.245 15.804C130.713 19.944 130.893 26.172 132.657 26.172V26.856H126.789C125.889 26.856 125.061 26.244 124.845 25.38C123.765 26.352 121.641 27.36 119.553 27.252C116.133 27 114.621 25.164 114.621 23.04C114.621 18.144 120.921 17.172 124.593 16.632C124.593 16.488 124.629 16.344 124.629 16.164C124.629 13.464 124.125 11.268 121.929 11.268C120.453 11.268 119.553 12.528 119.733 13.752C119.733 13.86 119.769 14.004 119.805 14.148L119.913 14.58C119.949 14.796 119.985 15.012 119.949 15.264C119.949 15.84 119.769 16.38 119.445 16.812C119.337 16.956 119.229 17.1 119.121 17.208C118.581 17.712 118.041 17.892 117.321 17.928C116.745 17.928 116.205 17.784 115.773 17.496C115.449 17.28 115.197 17.028 115.017 16.704C114.909 16.56 114.801 16.344 114.729 16.128C114.621 15.804 114.585 15.444 114.621 15.12C114.621 14.76 114.693 14.364 114.801 14.004C114.909 13.716 115.053 13.428 115.197 13.14C115.521 12.636 116.025 12.096 116.709 11.592C117.321 11.124 118.005 10.8 118.761 10.548C119.625 10.296 120.345 10.188 120.993 10.116C122.397 9.936 129.417 8.748 130.245 15.804ZM119.913 21.888C119.913 25.38 123.009 25.524 124.665 24.408C124.485 22.788 124.557 20.304 124.593 17.856C122.937 18.216 119.913 19.224 119.913 21.888ZM151.205 18.612H152.069C152.069 18.612 150.629 27.252 141.845 27.252C137.777 27.252 134.897 24.264 133.925 21.42C133.637 20.484 133.493 19.548 133.493 18.612C133.493 14.76 136.013 11.34 139.685 10.26C139.973 10.188 140.981 9.936 142.349 9.936C146.885 9.936 148.685 12.6 149.009 13.14C149.189 13.392 149.297 13.68 149.405 14.004C149.549 14.364 149.585 14.76 149.621 15.12C149.621 15.48 149.585 15.84 149.477 16.164C149.405 16.38 149.333 16.596 149.225 16.74C149.009 17.064 148.757 17.316 148.433 17.532C148.001 17.856 147.425 18 146.849 17.964C146.129 17.964 145.553 17.784 145.049 17.244C144.905 17.136 144.797 16.992 144.689 16.848C144.365 16.38 144.185 15.876 144.149 15.264C144.149 15.012 144.185 14.796 144.221 14.58L144.329 14.148C144.365 13.968 144.365 13.824 144.401 13.752C144.581 12.564 144.185 11.196 142.781 11.232C140.909 11.232 139.073 13.572 139.073 16.74C139.073 20.916 141.557 23.184 144.833 23.184C149.513 23.184 151.205 18.612 151.205 18.612ZM171.068 18.612H171.932C171.932 18.612 170.492 27.252 161.708 27.252C157.64 27.252 154.76 24.264 153.788 21.42C153.5 20.484 153.32 19.548 153.32 18.612C153.32 14.76 155.876 11.34 159.548 10.26C159.836 10.188 160.844 9.936 162.212 9.936C166.748 9.936 168.512 12.6 168.872 13.14C170.06 14.868 169.484 16.92 168.62 17.856C166.244 20.412 161.564 19.764 159.224 19.224C160.016 22.212 162.32 23.184 164.696 23.184C169.376 23.184 171.068 18.612 171.068 18.612ZM158.936 16.812C158.936 17.352 158.972 17.82 159.044 18.288C166.46 17.712 165.812 11.232 162.644 11.232C160.556 11.232 158.936 13.788 158.936 16.812Z" data-figma-gradient-fill="{&#34;type&#34;:&#34;GRADIENT_DIAMOND&#34;,&#34;stops&#34;:[{&#34;color&#34;:{&#34;r&#34;:0.67058825492858887,&#34;g&#34;:0.34117648005485535,&#34;b&#34;:0.17647059261798859,&#34;a&#34;:1.0},&#34;position&#34;:0.0},{&#34;color&#34;:{&#34;r&#34;:0.925781250,&#34;g&#34;:0.60574328899383545,&#34;b&#34;:0.32170906662940979,&#34;a&#34;:1.0},&#34;position&#34;:0.44062486290931702},{&#34;color&#34;:{&#34;r&#34;:0.64661461114883423,&#34;g&#34;:0.27804082632064819,&#34;b&#34;:0.057656534016132355,&#34;a&#34;:1.0},&#34;position&#34;:0.99989998340606689},{&#34;color&#34;:{&#34;r&#34;:0.67161458730697632,&#34;g&#34;:0.34458318352699280,&#34;b&#34;:0.16062788665294647,&#34;a&#34;:1.0},&#34;position&#34;:1.0}],&#34;stopsVar&#34;:[],&#34;transform&#34;:{&#34;m00&#34;:5.3427691454999149e-05,&#34;m01&#34;:-1052.8568115234375,&#34;m02&#34;:607.42834472656250,&#34;m10&#34;:-53.000015258789062,&#34;m11&#34;:-0.0010613526683300734,&#34;m12&#34;:53.500545501708984},&#34;opacity&#34;:1.0,&#34;blendMode&#34;:&#34;NORMAL&#34;,&#34;visible&#34;:true}"/>
<defs>
<clipPath id="paint0_diamond_36_31_clip_path"><path d="M15.992 23.148H16.676V27L0.296 27.036V26.316C0.62 26.316 1.088 21.384 1.088 15.336C1.088 9.288 0.656 4.356 0.296 4.356V3.672H8.144V4.356C7.784 4.356 7.316 9.396 7.316 15.012C7.316 20.268 7.604 24.732 7.964 25.956C10.196 25.956 14.588 26.064 15.992 23.148ZM26.5099 9.54C32.1979 9.54 35.3299 13.5 35.3299 18.36C35.3299 23.256 32.1979 27.216 26.5099 27.216C20.7859 27.216 17.6899 23.256 17.6899 18.36C17.6899 13.5 20.7859 9.54 26.5099 9.54ZM26.5099 25.38C28.0579 25.38 29.2819 22.248 29.2819 18.36C29.2819 14.508 28.0579 11.376 26.5099 11.376C24.9619 11.376 23.7019 14.508 23.7019 18.36C23.7019 22.248 24.9619 25.38 26.5099 25.38ZM54.8768 18.612H55.7408C55.7408 18.612 54.3008 27.252 45.5168 27.252C41.4488 27.252 38.5688 24.264 37.5968 21.42C37.3088 20.484 37.1648 19.548 37.1648 18.612C37.1648 14.76 39.6848 11.34 43.3568 10.26C43.6448 10.188 44.6528 9.936 46.0208 9.936C50.5568 9.936 52.3568 12.6 52.6808 13.14C52.8608 13.392 52.9688 13.68 53.0768 14.004C53.2208 14.364 53.2568 14.76 53.2928 15.12C53.2928 15.48 53.2568 15.84 53.1488 16.164C53.0768 16.38 53.0048 16.596 52.8968 16.74C52.6808 17.064 52.4288 17.316 52.1048 17.532C51.6728 17.856 51.0968 18 50.5208 17.964C49.8008 17.964 49.2248 17.784 48.7208 17.244C48.5768 17.136 48.4688 16.992 48.3608 16.848C48.0368 16.38 47.8568 15.876 47.8208 15.264C47.8208 15.012 47.8568 14.796 47.8928 14.58L48.0008 14.148C48.0368 13.968 48.0368 13.824 48.0728 13.752C48.2528 12.564 47.8568 11.196 46.4528 11.232C44.5808 11.232 42.7448 13.572 42.7448 16.74C42.7448 20.916 45.2288 23.184 48.5048 23.184C53.1848 23.184 54.8768 18.612 54.8768 18.612ZM72.9401 15.804C73.4081 19.944 73.5881 26.172 75.3521 26.172V26.856H69.4841C68.5841 26.856 67.7561 26.244 67.5401 25.38C66.4601 26.352 64.3361 27.36 62.2481 27.252C58.8281 27 57.3161 25.164 57.3161 23.04C57.3161 18.144 63.6161 17.172 67.2881 16.632C67.2881 16.488 67.3241 16.344 67.3241 16.164C67.3241 13.464 66.8201 11.268 64.6241 11.268C63.1481 11.268 62.2481 12.528 62.4281 13.752C62.4281 13.86 62.4641 14.004 62.5001 14.148L62.6081 14.58C62.6441 14.796 62.6801 15.012 62.6441 15.264C62.6441 15.84 62.4641 16.38 62.1401 16.812C62.0321 16.956 61.9241 17.1 61.8161 17.208C61.2761 17.712 60.7361 17.892 60.0161 17.928C59.4401 17.928 58.9001 17.784 58.4681 17.496C58.1441 17.28 57.8921 17.028 57.7121 16.704C57.6041 16.56 57.4961 16.344 57.4241 16.128C57.3161 15.804 57.2801 15.444 57.3161 15.12C57.3161 14.76 57.3881 14.364 57.4961 14.004C57.6041 13.716 57.7481 13.428 57.8921 13.14C58.2161 12.636 58.7201 12.096 59.4041 11.592C60.0161 11.124 60.7001 10.8 61.4561 10.548C62.3201 10.296 63.0401 10.188 63.6881 10.116C65.0921 9.936 72.1121 8.748 72.9401 15.804ZM62.6081 21.888C62.6081 25.38 65.7041 25.524 67.3601 24.408C67.1801 22.788 67.2521 20.304 67.2881 17.856C65.6321 18.216 62.6081 19.224 62.6081 21.888ZM83.8461 16.416C83.8461 16.416 83.7381 26.172 84.6741 26.172V26.856H76.8261V26.172C77.4381 26.172 77.6901 19.296 77.6901 12.816C77.6901 8.496 77.2941 4.644 76.8261 4.284V3.492C80.2461 3.024 81.6861 2.376 83.8821 0.755999H84.6741C83.9901 5.4 83.8101 11.412 83.8461 16.416ZM97.8546 3.672L114.235 3.708V7.56H113.551C112.147 4.608 107.755 4.716 105.487 4.716C105.199 5.904 104.911 9.936 104.875 14.76C107.179 14.688 110.095 14.256 111.211 11.952H111.895V18.72H111.211C110.095 16.416 107.179 15.984 104.875 15.912C104.875 21.42 105.343 26.316 105.703 26.316V27.036H97.8186V26.316C98.2146 26.316 98.6466 21.384 98.6466 15.336C98.6466 9.324 98.1786 4.356 97.8546 4.356V3.672ZM130.245 15.804C130.713 19.944 130.893 26.172 132.657 26.172V26.856H126.789C125.889 26.856 125.061 26.244 124.845 25.38C123.765 26.352 121.641 27.36 119.553 27.252C116.133 27 114.621 25.164 114.621 23.04C114.621 18.144 120.921 17.172 124.593 16.632C124.593 16.488 124.629 16.344 124.629 16.164C124.629 13.464 124.125 11.268 121.929 11.268C120.453 11.268 119.553 12.528 119.733 13.752C119.733 13.86 119.769 14.004 119.805 14.148L119.913 14.58C119.949 14.796 119.985 15.012 119.949 15.264C119.949 15.84 119.769 16.38 119.445 16.812C119.337 16.956 119.229 17.1 119.121 17.208C118.581 17.712 118.041 17.892 117.321 17.928C116.745 17.928 116.205 17.784 115.773 17.496C115.449 17.28 115.197 17.028 115.017 16.704C114.909 16.56 114.801 16.344 114.729 16.128C114.621 15.804 114.585 15.444 114.621 15.12C114.621 14.76 114.693 14.364 114.801 14.004C114.909 13.716 115.053 13.428 115.197 13.14C115.521 12.636 116.025 12.096 116.709 11.592C117.321 11.124 118.005 10.8 118.761 10.548C119.625 10.296 120.345 10.188 120.993 10.116C122.397 9.936 129.417 8.748 130.245 15.804ZM119.913 21.888C119.913 25.38 123.009 25.524 124.665 24.408C124.485 22.788 124.557 20.304 124.593 17.856C122.937 18.216 119.913 19.224 119.913 21.888ZM151.205 18.612H152.069C152.069 18.612 150.629 27.252 141.845 27.252C137.777 27.252 134.897 24.264 133.925 21.42C133.637 20.484 133.493 19.548 133.493 18.612C133.493 14.76 136.013 11.34 139.685 10.26C139.973 10.188 140.981 9.936 142.349 9.936C146.885 9.936 148.685 12.6 149.009 13.14C149.189 13.392 149.297 13.68 149.405 14.004C149.549 14.364 149.585 14.76 149.621 15.12C149.621 15.48 149.585 15.84 149.477 16.164C149.405 16.38 149.333 16.596 149.225 16.74C149.009 17.064 148.757 17.316 148.433 17.532C148.001 17.856 147.425 18 146.849 17.964C146.129 17.964 145.553 17.784 145.049 17.244C144.905 17.136 144.797 16.992 144.689 16.848C144.365 16.38 144.185 15.876 144.149 15.264C144.149 15.012 144.185 14.796 144.221 14.58L144.329 14.148C144.365 13.968 144.365 13.824 144.401 13.752C144.581 12.564 144.185 11.196 142.781 11.232C140.909 11.232 139.073 13.572 139.073 16.74C139.073 20.916 141.557 23.184 144.833 23.184C149.513 23.184 151.205 18.612 151.205 18.612ZM171.068 18.612H171.932C171.932 18.612 170.492 27.252 161.708 27.252C157.64 27.252 154.76 24.264 153.788 21.42C153.5 20.484 153.32 19.548 153.32 18.612C153.32 14.76 155.876 11.34 159.548 10.26C159.836 10.188 160.844 9.936 162.212 9.936C166.748 9.936 168.512 12.6 168.872 13.14C170.06 14.868 169.484 16.92 168.62 17.856C166.244 20.412 161.564 19.764 159.224 19.224C160.016 22.212 162.32 23.184 164.696 23.184C169.376 23.184 171.068 18.612 171.068 18.612ZM158.936 16.812C158.936 17.352 158.972 17.82 159.044 18.288C166.46 17.712 165.812 11.232 162.644 11.232C160.556 11.232 158.936 13.788 158.936 16.812Z"/></clipPath><linearGradient id="paint0_diamond_36_31" x1="0" y1="0" x2="500" y2="500" gradientUnits="userSpaceOnUse">
<stop stop-color="#AB572D"/>
<stop offset="0.440625" stop-color="#EC9A52"/>
<stop offset="0.9999" stop-color="#A5470F"/>
<stop offset="1" stop-color="#AB5829"/>
</linearGradient>
</defs>
</svg>
